GREETZ: UnDeaD - BadGirl2k9 - virusofsaten - foxyb - WICCYWOLF - lizzymwah1

VISIT http://www.seedboxworld.biz/ for all ur seedbox needs!

RELEASE NAME: Shut.Up.And.Kiss.Me.2010.DVDRip.X264-SDTeam
RELEASED BY: UnDeaD & BadGirl2k9
SIZE: 374 MB

LANGUAGE: English
IMDb: http://www.imdb.com/title/tt1607583/

PLOT: A modern day take on the trials and tribulations of dating. 
We follow Ben as he faces the world of dating as a 35 year old who 
is looking for more then sex. After testing out different routes and 
adventures, he stumbles across Grey. The chemistry between the two is 
instant, but what happens when you meet someone who doesn't share the 
same beliefs about relationships that you do? This funny and touching 
film touches on relevant topics in today's society including sexual 
monogamy, Serodiscordant relationships and can someone really have 
it all? Written by Ronnie Kerr, this film is an autobiographical 
look at his life.

COVER IMAGE: http://bayimg.com/PaPdDAACf
SCREENS: 
http://i658.photobucket.com/albums/uu309/BadGirl2k9/screens/vlcsnap-2010-09-23-20h44m04s180.png 
http://i658.photobucket.com/albums/uu309/BadGirl2k9/screens/vlcsnap-2010-09-23-20h44m12s19.png 
http://i658.photobucket.com/albums/uu309/BadGirl2k9/screens/vlcsnap-2010-09-23-20h44m23s115.png

General
Format                           : MPEG-4
Format profile                   : Base Media
Codec ID                         : isom
File size                        : 374 MiB
Duration                         : 1h 17mn
Overall bit rate                 : 672 Kbps
Encoded date                     : UTC 2010-09-22 19:38:34
Tagged date                      : UTC 2010-09-22 19:38:34

Video
ID                               : 1
Format                           : AVC
Format/Info                      : Advanced Video Codec
Format profile                   : High@L2.2
Format settings, CABAC           : Yes
Format settings, ReFrames        : 4 frames
Codec ID                         : avc1
Codec ID/Info                    : Advanced Video Coding
Duration                         : 1h 17mn
Bit rate mode                    : Variable
Bit rate                         : 500 Kbps
Maximum bit rate                 : 2 982 Kbps
Width                            : 624 pixels
Height                           : 352 pixels
Display aspect ratio             : 16:9
Frame rate mode                  : Constant
Frame rate                       : 20.000 fps
Resolution                       : 8 bits
Colorimetry                      : 4:2:0
Scan type                        : Progressive
Bits/(Pixel*Frame)               : 0.114
Stream size                      : 279 MiB (74%)
Title                            : Imported with GPAC 0.4.6-DEV (internal rev. 5)
Writing library                  : x264 core 102 r1666 d058f37

Audio
ID                               : 2
Format                           : MPEG Audio
Format version                   : Version 1
Format profile                   : Layer 3
Format_Settings_Mode             : Joint stereo
Format_Settings_ModeExtension    : MS Stereo
Codec ID                         : 6B
Duration                         : 1h 17mn
Bit rate mode                    : Variable
Bit rate                         : 169 Kbps
Nominal bit rate                 : 161 Kbps
Maximum bit rate                 : 180 Kbps
Channel(s)                       : 2 channels
Sampling rate                    : 48.0 KHz
Stream size                      : 94.0 MiB (25%)
Title                            : Imported with GPAC 0.4.6-DEV (internal rev. 5)
Writing library                  : LAME3.90.

GROUP NOTE: Big thanks to seedboxworld.biz for the seedbox!
